Coordinates
version=1
nRows=38
nColumns=12
inDegrees=yes

Units are S.I. units (second, meters, Newtons, ...)
Angles are in degrees

endheader
time	SC_y	SC_z	SC_x	AC_y	AC_z	AC_x	GH_y	GH_z	GH_yy	EL_x	PS_y
       0.0              -45.73          33.66          19.32          36.15         -15.55          4.106         -49.11          1.404          161.7          98.25          148.0
     0.041              -45.73          33.65          19.32          36.15         -15.55          4.108         -49.08          1.411          161.7          98.25          148.0
   0.08201              -45.73          33.65          19.33          36.16         -15.55           4.11         -49.05          1.419          161.6          98.24          147.9
     0.123              -45.72          33.64          19.33          36.16         -15.55          4.111         -49.02          1.427          161.6          98.23          147.9
     0.164              -45.72          33.63          19.33          36.17         -15.55          4.113         -48.99          1.436          161.5          98.22          147.9
     0.205              -45.72          33.63          19.33          36.17         -15.54          4.115         -48.96          1.446          161.5           98.2          147.9
     0.246              -45.71          33.62          19.33          36.18         -15.54          4.117         -48.93          1.456          161.4          98.19          147.8
     0.287              -45.71          33.61          19.33          36.18         -15.54           4.12         -48.89          1.466          161.4          98.18          147.8
     0.328              -45.71           33.6          19.33          36.19         -15.54          4.122         -48.85          1.478          161.3          98.17          147.8
     0.369               -45.7          33.59          19.33           36.2         -15.53          4.125         -48.81           1.49          161.3          98.15          147.8
      0.41               -45.7          33.58          19.33           36.2         -15.53          4.128         -48.76          1.504          161.2          98.14          147.7
    0.4511              -45.69          33.57          19.33          36.21         -15.53          4.131         -48.71          1.518          161.1          98.12          147.7
    0.4921              -45.69          33.56          19.33          36.22         -15.52          4.134         -48.66          1.533          161.0           98.1          147.7
    0.5331              -45.68          33.55          19.33          36.23         -15.52          4.138          -48.6           1.55          160.9          98.08          147.6
    0.5741              -45.67          33.54          19.33          36.24         -15.52          4.142         -48.54          1.568          160.8          98.06          147.6
    0.6151              -45.67          33.52          19.33          36.25         -15.51          4.146         -48.47          1.588          160.7          98.04          147.5
    0.6561              -45.66           33.5          19.33          36.26         -15.51           4.15          -48.4          1.609          160.6          98.01          147.5
    0.6971              -45.65          33.49          19.33          36.28          -15.5          4.155         -48.32          1.632          160.5          97.99          147.4
    0.7381              -45.64          33.47          19.33          36.29         -15.49          4.161         -48.23          1.658          160.4          97.96          147.4
    0.7791              -45.63          33.45          19.33           36.3         -15.49          4.167         -48.13          1.685          160.2          97.92          147.3
    0.8201              -45.62          33.42          19.33          36.32         -15.48          4.173         -48.03          1.716          160.1          97.89          147.2
    0.8611              -45.61           33.4          19.34          36.34         -15.47           4.18         -47.91          1.749          159.9          97.85          147.2
    0.9021               -45.6          33.37          19.34          36.36         -15.46          4.188         -47.79          1.786          159.7          97.81          147.1
    0.9431              -45.58          33.34          19.34          36.38         -15.45          4.197         -47.65          1.827          159.5          97.76          147.0
    0.9841              -45.57          33.31          19.34          36.41         -15.44          4.207         -47.49          1.873          159.2           97.7          146.9
     1.025              -45.55          33.27          19.34          36.44         -15.43          4.218         -47.31          1.924          159.0          97.64          146.7
     1.066              -45.53          33.23          19.34          36.47         -15.42           4.23         -47.12          1.981          158.7          97.58          146.6
     1.107              -45.51          33.18          19.34           36.5          -15.4          4.244          -46.9          2.045          158.3           97.5          146.5
     1.148              -45.48          33.12          19.35          36.54         -15.38          4.259         -46.65          2.117          158.0          97.42          146.3
     1.189              -45.45          33.06          19.35          36.59         -15.36          4.277         -46.36            2.2          157.5          97.32          146.1
      1.23              -45.42          32.99          19.35          36.64         -15.34          4.297         -46.04          2.294          157.0          97.21          145.9
     1.271              -45.38          32.91          19.36           36.7         -15.31           4.32         -45.67          2.401          156.5          97.09          145.6
     1.312              -45.34          32.82          19.36          36.77         -15.28          4.347         -45.24          2.526          155.8          96.94          145.3
     1.353              -45.29          32.71          19.36          36.85         -15.25          4.378         -44.74           2.67          155.1          96.77          145.0
     1.394              -45.23          32.58          19.37          36.94         -15.21          4.414         -44.16          2.839          154.2          96.57          144.6
     1.435              -45.16          32.43          19.37          37.06         -15.16          4.457         -43.47          3.039          153.1          96.34          144.1
     1.476              -45.08          32.26          19.38          37.19          -15.1          4.508         -42.66          3.276          151.9          96.06          143.6
     1.517              -44.98          32.04          19.39          37.34         -15.03          4.569         -41.68           3.56          150.4          95.73          142.9
